# xmcd
#
# Track frame offsets:
#	150
#	18825
#	43304
#	55867
#	65628
#	79523
#	94133
#	106160
#	119713
#	133878
#	146016
#	178357
#	199526
#	212100
#	251461
#
# Disc length: 3681 seconds
#
# Revision: 3
# Processed by: cddbd v1.5.1PL0 Copyright (c) Steve Scherf et al.
# Submitted via: audiograbber 1.83.01
#
DISCID=e00e5f0f
DTITLE=Various Artist - Damn Right We Got The Blues [CD3]
DYEAR=2001
DGENRE=Blues
TTITLE0=Robert Cray - Smoking Gun
TTITLE1=B.B. King - The Thrill Is Gone
TTITLE2=Etta James - Something's Got A Hold On Me
TTITLE3=Willie Dixon - 29 Ways
TTITLE4=Louis Jordan and His Tympani Five - Ain't Nobody Here But Us Chickens
TTITLE5=Dinah Washington - Long John Blues
TTITLE6=Chuck Berry - You Never Can Tell
TTITLE7=Bo Diddley - I'm A Man
TTITLE8=Sonny Boy Williamson - Help Me
TTITLE9=John Lee Hooker - Boom Boom Boom Boom
TTITLE10=Buddy Guy - Stone Crazy
TTITLE11=Lynyrd Skynyrd - Made In The Shade
TTITLE12=Howlin' Wolf - Spoonful
TTITLE13=The Allman Brothers Band - Stormy Monday
TTITLE14=Roy Buchanan - Hey Joe
EXTD=
EXTT0=
EXTT1=
EXTT2=
EXTT3=
EXTT4=
EXTT5=
EXTT6=
EXTT7=
EXTT8=
EXTT9=
EXTT10=
EXTT11=
EXTT12=
EXTT13=
EXTT14=
PLAYORDER=
